<svg width="155" height="46" viewBox="0 0 155 46" fill="none" xmlns="http://www.w3.org/2000/svg">
<path d="M50.7963 45.8794H57.9844C59.8436 45.8736 58.7975 45.0169 58.4147 44.5562L46.7787 29.4569L57.2095 18.6434C58.0377 17.6575 57.3601 17.3437 56.0796 17.3643H49.6112C48.8954 17.3643 48.6154 17.601 48.0483 18.0629L36.9017 28.8216V10.7977H36.9015V9.02024V7.7763C36.9015 6.9365 36.6781 6.5929 35.5624 6.5929H29.7547C28.9328 6.5929 28.7924 6.876 28.7924 7.97466V9.02024V10.7977V42.896V43.434V44.4795C28.7924 45.5782 28.9328 45.8613 29.7547 45.8613H35.5624C36.6781 45.8613 36.9015 45.5177 36.9015 44.6779V43.434V42.896H36.9017V38.6196L40.8005 34.7002L49.0115 45.0835C49.4135 45.5932 50.0317 45.8901 50.7963 45.8797V45.8794Z" fill="#549A9A"/>
<path d="M129.16 16.9586C125.57 16.9586 122.445 18.1439 120.27 20.3341V19.8093V18.5654C120.27 17.7256 120.046 17.3821 118.931 17.3821H113.123C112.301 17.3821 112.161 17.6652 112.161 18.7638V19.0506V43.4346V44.4801C112.161 45.5787 112.301 45.8618 113.123 45.8618H118.931C120.046 45.8618 120.27 45.5183 120.27 44.6785V43.4346V31.7877C120.27 26.5447 123.078 24.1085 126.976 24.1085C130.563 24.1085 132.668 26.2275 132.642 30.8346L132.565 44.4801C132.565 45.5787 132.705 45.8618 133.527 45.8618H139.335C140.451 45.8618 140.673 45.5183 140.673 44.6785L140.751 29.5638C140.796 20.8779 135.76 16.9589 129.159 16.9589L129.16 16.9586Z" fill="#549A9A"/>
<path d="M150.27 43.4351V19.8099V18.566C150.27 17.7262 150.047 17.3825 148.932 17.3825H143.124C142.302 17.3825 142.161 17.6656 142.161 18.7643V19.8099V43.4351V44.4806C142.161 45.5792 142.301 45.8624 143.124 45.8624H148.932C150.048 45.8624 150.27 45.5188 150.27 44.679V43.4351Z" fill="#549A9A"/>
<path fill-rule="evenodd" clip-rule="evenodd" d="M143.51 10.8546C143.512 12.3208 143.738 12.6837 144.086 13.8732C144.153 14.1045 144.141 14.1714 144.294 14.1607C144.402 13.8404 143.44 9.10927 148.017 7.56135C148.716 7.32492 149.781 7.06454 150.583 7.01541C150.559 7.03474 150.57 7.02922 150.531 7.04856L150.09 7.18552C149.919 7.24171 149.784 7.28776 149.597 7.36484C148.631 7.76064 147.925 8.20618 147.184 8.95756C146.34 9.81145 145.588 11.2473 145.588 12.8127C145.588 13.3283 145.722 14.3105 145.965 14.6551C146.142 14.9065 146.509 14.8584 146.851 14.8414C148.699 14.7502 150.329 14.3188 151.676 13.0863C151.853 12.9251 152.019 12.7314 152.202 12.5102C152.514 12.1326 152.814 11.598 153.013 11.1147C153.809 9.19063 153.778 7.01663 153.524 4.9317C153.481 4.58287 153.424 4.20857 153.367 3.86466C153.317 3.56374 153.273 3.06384 153.145 2.84644C152.934 2.8268 152.844 3.06476 152.513 3.30396C151.851 3.78267 151.05 4.13548 150.342 4.42443C148.539 5.16015 145.913 6.01285 144.66 7.54939C143.99 8.37076 143.508 9.50875 143.51 10.8549V10.8546Z" fill="#549A9A"/>
<path fill-rule="evenodd" clip-rule="evenodd" d="M140.57 9.24185C140.57 9.81108 140.683 10.4381 140.864 10.9098C141.002 11.2724 141.149 11.5761 141.348 11.8982L141.75 12.4675C141.823 12.5618 141.9 12.6495 141.985 12.7309C142.428 13.1581 142.47 13.2514 143.026 13.6561C143.138 13.7381 143.498 14.0086 143.638 14.0206C143.669 13.9021 143.403 13.1258 143.35 12.956C143.264 12.6788 143.002 12.3459 142.862 12.0508C142.037 10.3279 142.209 8.75943 143.059 7.08257C143.264 6.67787 143.469 6.36252 143.69 6.00571C143.811 5.80735 144.306 5.11739 144.424 5.01115L143.994 5.84266C143.858 6.12056 143.736 6.41502 143.622 6.73099C143.43 7.26037 143.173 8.2709 143.256 8.90006C143.313 8.85523 143.479 8.39465 143.631 8.14255C143.777 7.9015 143.948 7.65678 144.1 7.48267C144.479 7.05003 144.761 6.75617 145.254 6.38309C145.85 5.93172 146.689 5.47297 147.404 5.1613C148.318 4.76305 148.317 4.86529 147.998 4.40808C147.66 3.92139 147.042 3.21515 146.629 2.81413C146.429 2.61976 146.238 2.4475 146.02 2.24423C145.929 2.15917 145.803 2.06367 145.708 1.97923C145.38 1.68508 144.76 1.19777 144.394 0.937685L143.692 0.436259C143.58 0.355195 143.455 0.219781 143.276 0.249566C143.202 0.398798 143.23 0.689277 143.207 0.885795C143.14 1.46676 142.929 2.09223 142.729 2.62129C141.979 4.59723 140.566 7.16456 140.569 9.24149L140.57 9.24185Z" fill="#549A9A"/>
<path d="M57.9269 21.8626C60.5324 28.6744 60.4428 23.5769 67.9956 23.5769C72.2156 23.5769 74.225 25.5727 74.225 29.002H67.9956C59.7571 29.002 56.3913 32.38 56.3913 37.2426C56.3913 42.0023 60.159 45.5851 66.4887 45.5851C70.4573 45.5851 73.2704 44.2543 74.7274 41.7466C74.7274 42.7875 75.0513 45.2418 76.4395 45.1758H82.803C80.7888 40.5647 82.0616 35.0471 82.0616 29.4629C82.0616 12.3898 56.3317 17.6939 57.9265 21.8629L57.9269 21.8626ZM68.4476 40.2109C65.6848 40.2109 64.0269 38.8802 64.0269 36.8842C64.0269 35.0416 65.1824 33.6598 68.8497 33.6598H74.225V36.4747C73.3205 38.9824 71.0601 40.2109 68.4476 40.2109Z" fill="#549A9A"/>
<path d="M85.6074 21.8626C88.2129 28.6744 88.1234 23.5769 95.6764 23.5769C99.8957 23.5769 101.905 25.5727 101.905 29.002H95.6764C87.4374 29.002 84.0718 32.38 84.0718 37.2426C84.0718 42.0023 87.8395 45.5851 94.1692 45.5851C98.1378 45.5851 100.951 44.2543 102.408 41.7466C102.408 42.7875 102.732 45.2418 104.12 45.1758H110.484C108.469 40.5647 109.742 35.0471 109.742 29.4629C109.742 12.3898 84.0122 17.6939 85.6072 21.8629L85.6074 21.8626ZM96.1283 40.2109C93.3656 40.2109 91.7078 38.8802 91.7078 36.8842C91.7078 35.0416 92.8632 33.6598 96.5305 33.6598H101.905V36.4747C101.002 38.9824 98.7403 40.2109 96.1283 40.2109Z" fill="#549A9A"/>
<path fill-rule="evenodd" clip-rule="evenodd" d="M1.97655 21.5449C1.97655 21.6876 3.05792 25.4624 4.54164 25.4624C5.73663 25.4624 9.71765 22.6847 14.52 23.9371C15.8939 24.2958 17.0597 25.0511 17.702 26.3565C18.0862 27.137 18.2239 28.0348 18.2239 29.0172H15.516C15.9711 28.3254 16.2288 28.2477 16.2288 27.0585C16.0082 27.223 16.0814 27.4223 15.9662 27.7346C15.8153 28.1442 15.4021 28.5099 15.0482 28.7589C14.5356 29.1197 14.0769 29.0172 13.3068 29.0172C13.3068 27.0443 15.4446 26.6752 15.4446 25.4624C15.4446 25.0981 15.475 25.0401 15.1598 24.9545C15.3849 25.9382 14.8424 25.821 13.865 26.6107C13.6893 26.7529 13.3364 27.1137 13.1842 27.2961C12.9329 27.5977 12.9048 27.784 12.7562 28.0214C12.6694 28.1601 12.7288 28.0724 12.6655 28.1467C12.6655 27.6648 12.3144 25.6804 11.739 25.6804C11.4548 25.6804 11.2212 25.7989 11.0976 25.9705C11.3979 25.945 11.4757 25.8256 11.739 25.8256C12.0588 25.8256 11.9228 26.3838 10.9551 26.4059C11.2005 26.779 11.516 26.9037 11.7411 27.3465C11.9771 27.8107 12.0949 28.0886 12.0949 28.8001C11.6004 28.221 11.947 29.14 10.4006 27.3329C9.99311 26.857 9.35903 26.0433 8.53169 26.0433C8.02446 26.0433 7.57419 26.3479 7.5341 26.8414C7.80927 26.6359 8.40209 25.4454 9.81407 27.4947C10.2571 28.1384 10.997 28.9741 11.0259 29.0178C9.73812 29.0178 8.1212 29.2702 7.04856 29.5391C4.94037 30.0682 2.7273 31.1626 1.57691 33.1096C0.985286 34.1107 0.644119 35.2554 0.55069 36.4299V37.7598C0.719767 39.9193 1.71524 42.0337 3.52265 43.4039C5.79781 45.1289 8.08775 45.4863 11.24 45.4863C12.8473 45.4863 14.6643 45.019 15.7297 44.4709C18.1006 43.2513 18.2918 42.1799 18.7222 41.8587C18.7222 42.6988 19.0534 44.5249 19.8825 44.9576C20.2996 45.1756 20.5636 45.124 21.1449 45.1234C23.0214 45.1209 24.8982 45.1234 26.7745 45.1234L26.2499 43.5537C26.0847 42.9874 25.9738 42.3868 25.8783 41.7556C25.6661 40.3477 25.7652 39.8487 25.6444 38.8007L25.8894 33.7029C25.9874 33.0424 26.0621 30.2206 26.0621 29.308C26.0621 26.7704 25.3074 24.1026 23.8701 22.3263C23.3842 21.7257 22.9313 21.2571 22.3403 20.7643C20.0205 18.8301 16.3695 17.7732 13.1639 17.7732H13.028C10.1971 17.7767 8.62512 17.8832 5.94097 18.6902C4.8147 19.0288 1.97624 20.1274 1.97624 21.5458L1.97655 21.5449ZM4.37678 34.1239V35.018C4.42289 35.1513 4.43224 35.5216 4.46931 35.715C4.51422 35.9496 4.56545 36.1836 4.62905 36.4035C5.43645 39.1876 7.8168 40.8328 10.5555 41.2256C10.761 41.2551 11.1302 41.263 11.2888 41.3023H12.3773C12.6478 41.2173 13.3562 41.1795 13.7218 41.0913C16.3165 40.4653 18.6037 38.6168 19.1019 35.7608C19.416 33.9586 18.9802 32.3033 17.5739 31.2574C16.9702 30.8085 16.1125 30.5254 15.1688 30.6455C14.7206 30.7027 14.3783 30.8279 14.023 31.0057C13.7644 31.1352 13.2827 31.4669 13.158 31.6468C13.2237 31.8725 13.4657 32.1105 13.5525 32.4126C13.0527 31.7257 12.7288 31.2694 11.8952 30.8315C9.69176 29.6737 6.67063 30.7305 6.00487 33.6341C5.8813 33.3424 6.35538 32.2888 6.4904 32.0546C7.03953 31.1033 7.78968 30.523 8.84031 30.2067C9.58235 29.9832 9.98499 30.0737 10.7426 30.0909C10.6236 29.9706 10.378 29.9116 10.2182 29.8662C10.0341 29.814 9.81858 29.7689 9.62907 29.7446C8.46629 29.5944 7.30836 29.8985 6.37798 30.5377C5.87436 30.8838 5.36201 31.3945 5.03471 31.9796C4.38824 33.1373 4.576 33.5058 4.37618 34.1245L4.37678 34.1239ZM14.5108 29.9003C14.7137 29.7191 14.9048 29.584 15.2496 29.4726C14.5534 29.3552 14.0302 29.3583 13.3623 29.6226C13.8683 29.5453 14.1565 29.6313 14.5106 29.9003H14.5108ZM10.9904 29.9521C10.7671 29.7983 10.5613 29.6878 10.2056 29.6206C10.8822 29.4166 11.4018 29.354 12.0965 29.5327C11.5851 29.5192 11.3092 29.6408 10.9904 29.9521ZM11.9855 29.9604C11.9265 30.0044 11.8111 30.1327 11.7951 30.2046C12.1791 30.5463 13.3228 30.2666 13.7333 30.098C13.4955 29.615 12.475 29.4019 11.9855 29.9604ZM14.9138 30.3955C15.8264 30.4281 15.9364 30.2307 17.0399 30.6609C17.1661 30.7103 17.507 30.8991 17.5881 30.9074C17.4723 30.5214 16.3906 29.6165 15.8997 29.491C15.394 29.5613 15.1899 29.8846 14.9138 30.3955Z" fill="#549A9A"/>
</svg>
